# xmcd
#
# Track frame offsets: 
#        150
#        30620
#        55508
#        69219
#        95747
#        117908
#        137107
#        151241
#        184330
#        213349
#
# Disc length: 3332 seconds
#
# Revision: 5
# Processed by: cddbd v1.5.2PL0 Copyright (c) Steve Scherf et al.
# Submitted via: ExactAudioCopy v0.95b4
#
DISCID=850d020a
DTITLE=Keny Ge - Classics in the key o G
DYEAR=1999
DGENRE=Blues
TTITLE0=Summertime
TTITLE1=The look of love
TTITLE2=What a Wonderful world
TTITLE3=Desafinado
TTITLE4=In a sentimental mood
TTITLE5=The girl from ipanema
TTITLE6=Stranger on the shore
TTITLE7=Body an Soul
TTITLE8=Round Midnight
TTITLE9=Over the Rainbow
EXTD=ID3G:   0
EXTT0=
EXTT1=
EXTT2=
EXTT3=
EXTT4=
EXTT5=
EXTT6=
EXTT7=
EXTT8=
EXTT9=
PLAYORDER=
